<svg xmlns="http://www.w3.org/2000/svg" version="1.1" xmlns:xlink="http://www.w3.org/1999/xlink" xmlns:svgjs="http://svgjs.dev/svgjs" width="1440" height="560" preserveAspectRatio="none" viewBox="0 0 1440 560"><g mask="url(&quot;#SvgjsMask1434&quot;)" fill="none"><rect width="1440" height="560" x="0" y="0" fill="rgba(240, 240, 240, 1)"></rect><path d="M709 368L708 66" stroke-width="8" stroke="url(&quot;#SvgjsLinearGradient1435&quot;)" stroke-linecap="round" class="Down"></path><path d="M1314 66L1313 437" stroke-width="10" stroke="url(&quot;#SvgjsLinearGradient1435&quot;)" stroke-linecap="round" class="Down"></path><path d="M724 420L723 131" stroke-width="8" stroke="url(&quot;#SvgjsLinearGradient1436&quot;)" stroke-linecap="round" class="Up"></path><path d="M1285 457L1284 752" stroke-width="10" stroke="url(&quot;#SvgjsLinearGradient1435&quot;)" stroke-linecap="round" class="Down"></path><path d="M453 25L452 226" stroke-width="10" stroke="url(&quot;#SvgjsLinearGradient1436&quot;)" stroke-linecap="round" class="Up"></path><path d="M39 374L38 201" stroke-width="10" stroke="url(&quot;#SvgjsLinearGradient1435&quot;)" stroke-linecap="round" class="Down"></path><path d="M793 427L792 600" stroke-width="10" stroke="url(&quot;#SvgjsLinearGradient1436&quot;)" stroke-linecap="round" class="Up"></path><path d="M361 226L360 539" stroke-width="8" stroke="url(&quot;#SvgjsLinearGradient1436&quot;)" stroke-linecap="round" class="Up"></path><path d="M1012 480L1011 279" stroke-width="10" stroke="url(&quot;#SvgjsLinearGradient1436&quot;)" stroke-linecap="round" class="Up"></path><path d="M1372 383L1371 545" stroke-width="6" stroke="url(&quot;#SvgjsLinearGradient1435&quot;)" stroke-linecap="round" class="Down"></path><path d="M398 21L397 249" stroke-width="10" stroke="url(&quot;#SvgjsLinearGradient1436&quot;)" stroke-linecap="round" class="Up"></path><path d="M166 241L165 -42" stroke-width="8" stroke="url(&quot;#SvgjsLinearGradient1435&quot;)" stroke-linecap="round" class="Down"></path><path d="M539 236L538 -139" stroke-width="10" stroke="url(&quot;#SvgjsLinearGradient1436&quot;)" stroke-linecap="round" class="Up"></path><path d="M1329 52L1328 386" stroke-width="6" stroke="url(&quot;#SvgjsLinearGradient1435&quot;)" stroke-linecap="round" class="Down"></path><path d="M572 336L571 590" stroke-width="6" stroke="url(&quot;#SvgjsLinearGradient1436&quot;)" stroke-linecap="round" class="Up"></path><path d="M310 250L309 653" stroke-width="8" stroke="url(&quot;#SvgjsLinearGradient1435&quot;)" stroke-linecap="round" class="Down"></path><path d="M433 400L432 113" stroke-width="8" stroke="url(&quot;#SvgjsLinearGradient1436&quot;)" stroke-linecap="round" class="Up"></path><path d="M1125 346L1124 79" stroke-width="10" stroke="url(&quot;#SvgjsLinearGradient1435&quot;)" stroke-linecap="round" class="Down"></path><path d="M645 254L644 526" stroke-width="10" stroke="url(&quot;#SvgjsLinearGradient1435&quot;)" stroke-linecap="round" class="Down"></path><path d="M7 156L6 371" stroke-width="10" stroke="url(&quot;#SvgjsLinearGradient1435&quot;)" stroke-linecap="round" class="Down"></path><path d="M925 423L924 604" stroke-width="8" stroke="url(&quot;#SvgjsLinearGradient1435&quot;)" stroke-linecap="round" class="Down"></path><path d="M263 141L262 -250" stroke-width="8" stroke="url(&quot;#SvgjsLinearGradient1435&quot;)" stroke-linecap="round" class="Down"></path><path d="M829 166L828 -53" stroke-width="6" stroke="url(&quot;#SvgjsLinearGradient1435&quot;)" stroke-linecap="round" class="Down"></path><path d="M684 281L683 477" stroke-width="10" stroke="url(&quot;#SvgjsLinearGradient1436&quot;)" stroke-linecap="round" class="Up"></path><path d="M58 287L57 637" stroke-width="6" stroke="url(&quot;#SvgjsLinearGradient1436&quot;)" stroke-linecap="round" class="Up"></path><path d="M1155 13L1154 -290" stroke-width="10" stroke="url(&quot;#SvgjsLinearGradient1436&quot;)" stroke-linecap="round" class="Up"></path><path d="M1076 200L1075 570" stroke-width="6" stroke="url(&quot;#SvgjsLinearGradient1435&quot;)" stroke-linecap="round" class="Down"></path><path d="M1171 359L1170 163" stroke-width="10" stroke="url(&quot;#SvgjsLinearGradient1436&quot;)" stroke-linecap="round" class="Up"></path><path d="M655 557L654 256" stroke-width="6" stroke="url(&quot;#SvgjsLinearGradient1435&quot;)" stroke-linecap="round" class="Down"></path><path d="M1063 551L1062 368" stroke-width="6" stroke="url(&quot;#SvgjsLinearGradient1436&quot;)" stroke-linecap="round" class="Up"></path><path d="M495 555L494 279" stroke-width="8" stroke="url(&quot;#SvgjsLinearGradient1436&quot;)" stroke-linecap="round" class="Up"></path><path d="M558 7L557 -263" stroke-width="10" stroke="url(&quot;#SvgjsLinearGradient1435&quot;)" stroke-linecap="round" class="Down"></path><path d="M997 64L996 423" stroke-width="8" stroke="url(&quot;#SvgjsLinearGradient1435&quot;)" stroke-linecap="round" class="Down"></path><path d="M178 270L177 484" stroke-width="10" stroke="url(&quot;#SvgjsLinearGradient1436&quot;)" stroke-linecap="round" class="Up"></path><path d="M561 188L560 -81" stroke-width="8" stroke="url(&quot;#SvgjsLinearGradient1436&quot;)" stroke-linecap="round" class="Up"></path><path d="M1236 86L1235 426" stroke-width="6" stroke="url(&quot;#SvgjsLinearGradient1435&quot;)" stroke-linecap="round" class="Down"></path></g><defs><mask id="SvgjsMask1434"><rect width="1440" height="560" fill="#ffffff"></rect></mask><linearGradient x1="0%" y1="0%" x2="0%" y2="100%" id="SvgjsLinearGradient1435"><stop stop-color="rgba(96, 206, 128, 0)" offset="0"></stop><stop stop-color="rgba(96, 206, 128, 1)" offset="1"></stop></linearGradient><linearGradient x1="0%" y1="100%" x2="0%" y2="0%" id="SvgjsLinearGradient1436"><stop stop-color="rgba(96, 206, 128, 0)" offset="0"></stop><stop stop-color="rgba(96, 206, 128, 1)" offset="1"></stop></linearGradient></defs></svg>